<svg id="Capa_1" data-name="Capa 1" xmlns="http://www.w3.org/2000/svg" viewBox="0 0 480.74 289"><defs><style>.cls-1{fill:#164588;}.cls-2{fill:#7299c2;}.cls-3{fill:#c3d7d9;}.cls-4{fill:#fff;}.cls-5{fill:#f3e600;}.cls-6{fill:#154687;}</style></defs><path class="cls-1" d="M303.2,392.62a6.82,6.82,0,0,0-2.51-1.29,18.66,18.66,0,0,1-3.42-5.22c-5.24,5.4-10.46,10.31-18.34,8.35L276.75,393c-3.43-2.39-4.4-5.9-4-10.05a41.47,41.47,0,0,1,2.57-10.27,104.6,104.6,0,0,1,5.91-12.91c1-1.95,2-3.94,3-5.93.25-.5.68-1.07,0-1.77a8.79,8.79,0,0,0-3.2,2.6c-7.18,7.56-13.41,16-19.5,24.57-3,4.26-5.59,8.85-8.34,13.32-1.1,1.79-2.37,3.12-4.56,2.83-1-.36-2.06-.69-3.07-1.08-1.68-.66-2-1.33-1.57-3.19a17.94,17.94,0,0,1,1.12-3q8.17-17.83,16.37-35.67c.86-1.87,1.66-3.78,2.64-5.59,2-3.75,5.31-5.06,9.07-5.37,1.19-.1,1.64.46,1.78,1.79a12.64,12.64,0,0,1-.36,2.75,78.73,78.73,0,0,1-4,8.94,2.19,2.19,0,0,0-.3,1.33c-.21,0-.25.09-.12.14s.06-.11.09-.18c1.33-.85,2.09-2.29,3.05-3.51,1.79-2.28,3.81-4.32,5.68-6.52,1.11-.84,2.21-1.68,3.33-2.5a18.43,18.43,0,0,1,6.84-3.25c3.73-.84,6.23.53,7.63,4.11a14.76,14.76,0,0,1-.95,5,39,39,0,0,1-2.76,6.31c-3.46,6.35-6.92,12.7-9.76,19.42a29.11,29.11,0,0,0-1.64,4.79c-1,4.46.69,6.24,4.81,5.06.13,0,.23-.16.35-.25a20.29,20.29,0,0,0,5.69-4.56c1.6-1.67,3.06-3.5,4.6-5.24a5.72,5.72,0,0,0,1.22-2.42A96.71,96.71,0,0,1,303,359.37c2.64-6.2,5.21-12.44,8.17-18.47a8.29,8.29,0,0,0,.85-2.37c1.4-1.67,2.13-3.72,3.21-6.19l-10.3,2a10.92,10.92,0,0,1-3.39-.62c-1.63-.67-2-1.83-1.29-3.49,2.11-4.68,5.44-7.47,10.36-7.93,2.87-.27,5.72-.78,8.59-1a3.37,3.37,0,0,0,3-2.13,73.83,73.83,0,0,1,5.51-9.69c.7-1,1.24-2,2.56-2.33a9.47,9.47,0,0,1,5.53,0c1.24.48,1.33,1.16.59,3.26q-2.12,4.51-4.24,9c.37.19.5.32.62.31,2.29-.23,4.58-.48,6.86-.72a3.71,3.71,0,0,1,2.77,1.49c.88,1.1,2.06,1.89,2.81,3.12a3.29,3.29,0,0,1-1.8,3.39,9.19,9.19,0,0,1-3.47,1.23c-4,.7-8.09,1.51-12.16,2.14a3.31,3.31,0,0,0-2.79,2.15c-3.52,7.64-7.14,15.23-10.39,23-2.43,5.79-4.95,11.55-6.88,17.57a20.06,20.06,0,0,0-1.15,6.58c.07,3.27,1.09,4.12,4.07,3.25a5,5,0,0,0,.78-.37c3.66-1.73,6.4-4.73,9.16-7.7a3.42,3.42,0,0,0,.68-1.92,48.38,48.38,0,0,1,9.49-21.4A49.26,49.26,0,0,1,345.65,338a17,17,0,0,1,6.62-2.07,5.54,5.54,0,0,1,5.33,1.88,1.36,1.36,0,0,0,1.48.64c3.5-.78,5.63,1.08,7,4.29a28.35,28.35,0,0,1-2,12.92c-2.8,7.32-6.92,13.74-11.43,19.94a54.4,54.4,0,0,1-11.77,11.56,17.79,17.79,0,0,1-13.36,3.55,1.85,1.85,0,0,0-1.25-.52c-1.49-1.41-3.27-2.51-4.07-4.63-.19-.5-.67-.55-1.08-.21a6,6,0,0,0-1,.92,25.28,25.28,0,0,1-5.73,4.87,11.76,11.76,0,0,1-7,2.08C306,393.18,304.63,392.73,303.2,392.62ZM335,380.18a26.9,26.9,0,0,0,7-5.69,74,74,0,0,0,12.39-19.94,15.82,15.82,0,0,0,1.49-5.29c.34-1.32-.1-2.13-1.38-2.27a1.93,1.93,0,0,1-1.78-1.45c-.38-1.37-1.14-1.12-2-.65-.51.28-1,.57-1.52.89-5.7,3.64-10,8.85-13.61,14.67A40.5,40.5,0,0,0,330,373.67a15.22,15.22,0,0,0-.25,4.85c.25,2.19,1.28,2.92,3.28,2.46A4,4,0,0,0,335,380.18Z" transform="translate(-46.26 -257)"/><path class="cls-1" d="M211.22,399.27c-.59-.08-1-.72-1.63-.62-.92-1.27-2.41-1.94-3.15-3.41-.5-1-1.06-.82-1.67-.13-.24.28-.5.55-.77.81-4.1,4-8.63,6.65-14.41,5.58a7.12,7.12,0,0,1-5.17-5.65,28.88,28.88,0,0,1,.92-9.8,9.48,9.48,0,0,0,.5-2.7,1.15,1.15,0,0,0,.31-1l.11-.13-.09.16a1.11,1.11,0,0,0-.5.86,4.78,4.78,0,0,0-1.4,1.74A58.14,58.14,0,0,1,172.67,398a18.93,18.93,0,0,1-11.7,4.86c-4.11-1.22-5.48-4.63-6-8.7-.73-5.3.67-10.16,2.75-14.83,5.49-12.37,13.82-21.8,25.31-27.94a24.83,24.83,0,0,1,6.28-2.4,6.38,6.38,0,0,1,5.74,1.22.88.88,0,0,0,1,.29c.94-2,2-4.09,2.94-6.24,4.25-9.51,8.66-18.92,13.33-28.19,1.72-3.41,3.51-6.77,5.48-10a9.38,9.38,0,0,1,6.71-4.59c3.06-.55,4.24.9,3.22,4l-.15.44q-7.37,15.39-14.72,30.8c-6.41,13.45-12.33,27.15-17.41,41.25a52.52,52.52,0,0,0-2.85,10,6.08,6.08,0,0,0,0,2.29c.38,1.68,1.1,2.21,2.65,1.76a6,6,0,0,0,2.68-1.45c2.68-1.79,4.56-4.46,6.53-7a3.69,3.69,0,0,0,.59-1.72c2.2-12.38,8.53-22,17.32-30a33.77,33.77,0,0,1,7.86-5.65,15.6,15.6,0,0,1,6.9-1.68,5.15,5.15,0,0,1,4.27,1.85,1.57,1.57,0,0,0,1.48.66c4.11-.18,5.43.69,7.06,4.54.51,4.28-.45,8.29-1.85,12.25a67.81,67.81,0,0,1-9.32,17.21c-3,4.21-6,8.51-10.06,11.77C223.46,397,218.11,400.51,211.22,399.27ZM185.3,368.85c.41-.05.45-.39.48-.72.33,0,.5-.3.66-.56,1.69-2.79,3.39-5.57,5.06-8.38.25-.4.74-.78.37-1.51a10,10,0,0,0-3,1.1,41,41,0,0,0-13.8,11,52.73,52.73,0,0,0-9.35,16.07,18.06,18.06,0,0,0-1.15,4.7c-.07.77-.07,1.64.69,2.05s1.27-.06,1.82-.43A24.73,24.73,0,0,0,172.3,387c3.68-4.71,7.37-9.41,10.76-14.38a13.69,13.69,0,0,0,2.27-3.79Zm54.3-10.74c.35-1.31-.08-2.12-1.36-2.26a1.91,1.91,0,0,1-1.76-1.47c-.33-1.19-1-1.14-1.82-.7a30.38,30.38,0,0,0-4.08,2.62c-7.57,5.83-12.54,13.77-16,22.9a18.33,18.33,0,0,0-1.15,7.5c.17,3.28,1.66,4.14,4.42,2.58a3.18,3.18,0,0,0,2-.83,29.57,29.57,0,0,0,6-5.31,67,67,0,0,0,13.13-21.89A8.65,8.65,0,0,0,239.6,358.11Z" transform="translate(-46.26 -257)"/><path class="cls-1" d="M97.25,405.65q-1.6-1.54-3.33-3c-3.38-2.75-5.21-6.54-6.16-10.9-1.53-7-.67-13.87,1.21-20.65a98.23,98.23,0,0,1,18.39-35.22,96,96,0,0,1,22.46-20.22,45.8,45.8,0,0,1,19-7.32,10.49,10.49,0,0,1,5.76.5c1.47.63,2.49,1.58,2.25,3.48-.38,1.58-1.57,2.85-1.73,4.87a21.72,21.72,0,0,1,6.37-.6,12.41,12.41,0,0,1,6.84,5.68,17.25,17.25,0,0,1,.28,7.12,79.11,79.11,0,0,1-7.18,23.05A138.14,138.14,0,0,1,141.66,384c-5.76,6.73-12,12.77-19.37,17.32-4.08,2.5-8.32,4.66-13,5.47-2.84.49-5.7,1.11-8.57.12C99.54,406.53,98.4,406.08,97.25,405.65Zm6.61-10.41a5.52,5.52,0,0,0,3,.27,18.46,18.46,0,0,0,5.4-1.61c5.89-2.65,10.67-7,15.16-11.73a132.71,132.71,0,0,0,23.16-33.39,79.91,79.91,0,0,0,5.2-12.48,16.46,16.46,0,0,0,1.22-5.37c.22-1.82-.51-2.35-2.19-1.76a13.67,13.67,0,0,0-2.88,1.57,30.84,30.84,0,0,0-4.11,3.73,43.32,43.32,0,0,0-7.07,8.39,6.62,6.62,0,0,0-1.39,4.51,2.42,2.42,0,0,1-.45,1.51,7.83,7.83,0,0,1-3-2.16c-4-3.91-4.41-5.51-2.54-10.94,1.24-1.8,2.07-3.88,3.5-5.56a57.07,57.07,0,0,1,9.87-9.05c.7-.51,1.64-.71,2.4-1.79a27.12,27.12,0,0,0-7.92,2.72,70,70,0,0,0-17.87,13.39,96.21,96.21,0,0,0-18.72,27.19,65.62,65.62,0,0,0-5.8,17.73c-.58,3.54-.72,7.13.66,10.53C100.31,393,101.42,395,103.86,395.24Z" transform="translate(-46.26 -257)"/><path class="cls-1" d="M363.91,436a12.93,12.93,0,0,0-3.54.7,1.31,1.31,0,0,1-1.52-.44c-.54-2,.59-3.55,1.44-5.32a9.21,9.21,0,0,0-4.15.57,65.18,65.18,0,0,0-20.38,9.36,87.77,87.77,0,0,0-13.16,10.93,18.07,18.07,0,0,0-3,3.93,3.32,3.32,0,0,0,.63,4.38,6.83,6.83,0,0,0,3.41,1.9c3.88,1.75,8,2.4,12.1,3.27,6,1.29,12,2.49,17.62,5.25,3.8,1.85,7.21,4.15,9.63,7.9,2.91,5.41,2.23,10.7-.49,15.9a22.61,22.61,0,0,1-3.42,4.78c-6.08,6.59-13.58,10.7-21.48,14a66.88,66.88,0,0,1-17.92,4.24c-4.29.53-8.6,1-12.93.16-1.35-.25-2.57-1-4-.9-.71-.53-1.4-1.08-2.13-1.58a11,11,0,0,1-4.05-5.32c-1.79-4.68.49-8.93,4.82-10.85,1.29-.58,1.73-.06,1.48,1.46a2,2,0,0,0,1.72,2.68c2.34.61,4.55,1.73,7,1.93a44.24,44.24,0,0,0,17.95-2.31,56.9,56.9,0,0,0,14.77-7.13,36.23,36.23,0,0,0,7.26-6.59,4.41,4.41,0,0,0,1.38-3.51c.07-1.5-1-2.16-1.92-2.82a14.58,14.58,0,0,0-3.55-1.67,97.61,97.61,0,0,0-10.06-2.58c-4.29-.95-8.65-1.53-12.9-2.73-3.27-.92-6.43-2.14-9.63-3.29l-2.47-1.87c-4.62-3.59-6.43-8.32-4.89-15.17,1.22-5.41,4.48-9.47,8.09-13.24,6-6.25,13.18-10.51,20.68-14.19s15.15-6.84,23.41-8a40.36,40.36,0,0,1,15.06.27,27,27,0,0,1,2.91.87,5,5,0,0,1,3.44,4.09,14.3,14.3,0,0,0-.17,1.84,6,6,0,0,1-2.67,5.26,10.66,10.66,0,0,1-2.93,1.49A59.8,59.8,0,0,1,363.91,436Z" transform="translate(-46.26 -257)"/><path class="cls-1" d="M401.23,510.45a3.34,3.34,0,0,0-1.73-.86c-1.07-1.13-2.36-2-3.15-3.46s-.8-1.3-1.85-.3a42.91,42.91,0,0,1-7.63,6.05,10.66,10.66,0,0,1-4.72,1.45,25.89,25.89,0,0,1-5.13-.63c-.6-.44-1.16-.92-1.78-1.3-2.83-1.73-4.05-4.49-4.39-7.81A28.77,28.77,0,0,1,372,493.06a115.43,115.43,0,0,1,4.29-12.39c2.72-6.92,5.87-13.61,9-20.31.32-.68.6-1.4.89-2.1l2.94-5.95-10.54,1.84a7.76,7.76,0,0,1-3.78-.79,1.84,1.84,0,0,1-.91-2.69c2-4.58,5.12-7.6,10-8.16,3.08-.36,6.16-.76,9.25-1.08a2.94,2.94,0,0,0,2.66-1.87c1.69-3.42,3.65-6.67,5.65-9.91,1.53-2.49,3.68-2.64,6-2.8a3.73,3.73,0,0,1,.64.11c2.8.42,3.08.91,2.11,3.76-1.38,2.88-3,5.66-4.38,8.94l7.62-.7a3.52,3.52,0,0,1,2.86,1.66,34.38,34.38,0,0,0,2.75,3.16,3.52,3.52,0,0,1-2.24,3.59,12.09,12.09,0,0,1-3.51,1.12c-4,.65-8,1.39-11.95,2.05a3,3,0,0,0-2.45,1.93c-1.43,3.21-3,6.37-4.45,9.56-4.41,9.59-8.62,19.28-12.29,29.23a23.13,23.13,0,0,0-1.81,8.78c.09,3,1.1,3.88,3.84,3.11a7.7,7.7,0,0,0,1-.45c2.29-.73,3.95-2.52,5.75-4.05.4-.33.72-.76,1.12-1.1a10.71,10.71,0,0,0,3.47-6.41c1.8-9.12,6.25-16.75,12.23-23.42a51.58,51.58,0,0,1,11.93-9.94,13.26,13.26,0,0,1,8.34-1.95,4.4,4.4,0,0,1,3.52,2c.32.51.63.82,1.22.68,3.6-.86,5.76,1.05,7.18,4.36a20.5,20.5,0,0,1-.87,9.14,58.22,58.22,0,0,1-8,16.92c-3.65,5.5-7.3,11-12.38,15.13S408.13,511.74,401.23,510.45Zm28.51-40.93c0-2,0-2.06-1.49-2.39a2.27,2.27,0,0,1-1.73-1.55c-.16-.39-.07-1-.67-1.09a6,6,0,0,0-2.15,1c-1.11.7-2.24,1.42-3.28,2.23-7.3,5.68-12.06,13.44-15.6,22.16a19.11,19.11,0,0,0-1.39,7.94c.12,3,1.49,4,4.18,3a3.59,3.59,0,0,0,.57-.32,21.36,21.36,0,0,0,7.65-5.91A73.55,73.55,0,0,0,425.2,481,41.07,41.07,0,0,0,429.74,469.52Z" transform="translate(-46.26 -257)"/><path class="cls-1" d="M426.69,298.89c5,.08,9.42.76,13.89,1.1a23.48,23.48,0,0,0,8.17-.68,5.91,5.91,0,0,0,3.13-1.95,3.84,3.84,0,0,1,.59-.68c14.2-12.17,30.45-12.74,44.67-1.23,7.09,5.73,11,13.82,12.08,23.39.94,8.41-.43,16.54-2.38,24.62-1.83,7.58-4.15,15-5.59,22.71-.8,4.27-1.14,8.6-1.58,12.92a89.09,89.09,0,0,1-1.74,12.18A25.82,25.82,0,0,1,490.15,405a13.09,13.09,0,0,1-12.43,2.94,12.48,12.48,0,0,1-9-7.9c-.95-2.35-1.9-4.7-3-7-1.58-3.35-3.43-4.48-6.56-4.15-2.53.27-4.23,1.86-5.35,4.2a32.64,32.64,0,0,0-2.1,6.59c-1.36,5.58-4.74,9-9.81,10.39-4.56,1.28-8.78.5-12.19-3.28a15.07,15.07,0,0,1-3.37-7.92c-.58-3.52-.92-7.07-1.45-10.6-.94-6.25-3.06-12.09-5.33-17.9-2.35-6-5.35-11.68-8-17.54-2.43-5.37-4.88-10.75-6.19-16.6a37,37,0,0,1,3.49-26.5C412.92,302.28,418.93,298.29,426.69,298.89Zm18.55,5c-4.89,0-9.6-.78-14.34-1.17-2-.16-4-.13-6.07-.1a13.76,13.76,0,0,0-9.9,4.57c-4.57,4.71-6.4,10.78-7.15,17.3-.72,6.35.8,12.32,3.09,18.1,3.17,8,7,15.64,10.54,23.47,4.1,9.15,7.14,18.62,7.63,28.89a14.9,14.9,0,0,0,3.48,9.32,7.05,7.05,0,0,0,11.16-.74,10.35,10.35,0,0,0,1.75-5.65,29.66,29.66,0,0,1,.45-5.33c.69-3.78,2-7.13,5.61-8.83,4.16-2,10.48-.64,13.73,2.82a23,23,0,0,1,4.52,7.32,46,46,0,0,0,2.57,5.89c2,3.52,5.27,4.63,8.79,3a11.71,11.71,0,0,0,5.48-5.73,25.06,25.06,0,0,0,2.15-9.43,131.63,131.63,0,0,1,4.64-25.53c1.91-7,4.34-13.82,5.95-20.91,1.67-7.38,2.51-14.82,1.17-22.37a31.09,31.09,0,0,0-17.16-23.32,23.75,23.75,0,0,0-9.21-2.41,25,25,0,0,0-15.62,3.75,34.76,34.76,0,0,0-7.59,6.53q-2.3,2.64-4.76,5.1a18.26,18.26,0,0,1-8.11,5.17,6.93,6.93,0,0,1-2.35.25,1.57,1.57,0,0,1-1.39-1.28,1.74,1.74,0,0,1,.85-2,3.6,3.6,0,0,1,1.22-.45C440.13,309.44,442.74,306.82,445.24,303.93Z" transform="translate(-46.26 -257)"/><path class="cls-1" d="M486.56,503.61c-.54-.37-1.06-.79-1.63-1.12-6.07-3.55-5.78-11.22-3.23-15.26a17.9,17.9,0,0,1,6.13-5.72l2.14-1.28a6.46,6.46,0,0,1-3.35-5.16,13.2,13.2,0,0,1,.55-7.64,28.4,28.4,0,0,1,4.26-6.57,41.8,41.8,0,0,1,15.07-9.81,24.73,24.73,0,0,1,7.15-1.76,9.89,9.89,0,0,1,3.86.36c1.87.58,3.06,1.69,3,3.93-.65,4.87-3,8.3-7.4,9.9a4.46,4.46,0,0,1-3.39.25c-1.13-.51-1-1.76-1.09-2.83-.08-.77-.53-.82-1.09-.58a6.94,6.94,0,0,0-1,.51,45.26,45.26,0,0,0-10.46,8.91,6.11,6.11,0,0,0-.89,1.3c-.58,1.17-.23,1.74,1,1.65a11.67,11.67,0,0,0,3.51-1.11c1.88-.74,3.71-1.74,5.82-1.53a6.22,6.22,0,0,1,2.91,4,6.86,6.86,0,0,1-4,4.6,52.1,52.1,0,0,0-9.29,6.28,25.4,25.4,0,0,0-4.38,4.11c-1.87,2.42-1.06,5.42,1.74,6.41a17.81,17.81,0,0,0,2.3.52c5,.52,9.12-1.56,13-4.65a111.42,111.42,0,0,0,9.06-8.22,24.6,24.6,0,0,1,2.11-2c1.38-1.1,2.16-.79,2.69,1a21.15,21.15,0,0,1,.46,4.13,6.85,6.85,0,0,1-2.37,5.48c-2,1.86-3.84,3.94-6,5.61-6,4.55-12.37,7.52-19.82,7.51C491.44,504.83,489,504.07,486.56,503.61Z" transform="translate(-46.26 -257)"/><path class="cls-1" d="M469.38,457a14.43,14.43,0,0,0,3-2.12,19.18,19.18,0,0,1,7.05-3.21c3.14-.72,6,.22,7.23,4.26a16.36,16.36,0,0,1-1.6,6.69A131.74,131.74,0,0,1,478.81,475a6.4,6.4,0,0,1-3,2.85,3.46,3.46,0,0,1-3.85-2.4,8.62,8.62,0,0,1-.18-6.26,21.46,21.46,0,0,1,1.72-4c.3-.58.84-1.08.58-1.87.21,0,.25,0,.14-.15l-.12.17c-1,.12-1.61,1-2.28,1.65-6.06,6-11.09,13.05-16.37,19.82-4.6,5.89-8.44,12.38-12.36,18.79-1.23,2-2.68,3.19-5,2.63-.9-.28-1.82-.52-2.69-.87-1.51-.61-1.91-1.37-1.52-3.05a14,14,0,0,1,1-2.58q8.48-18.46,17-36.9c.77-1.67,1.56-3.32,2.39-5,1.64-3.23,5.94-5.62,9.31-5.26,1,.11,1.34.75,1.45,1.69a14.77,14.77,0,0,1-.42,3c-1.14,3.29-2.7,6.36-4.13,9.52a.92.92,0,0,0,.68-.23,101.8,101.8,0,0,1,7.29-8.2A2.77,2.77,0,0,0,469.38,457Z" transform="translate(-46.26 -257)"/><path class="cls-2" d="M97.25,405.65c1.15.43,2.29.88,3.45,1.28,2.87,1,5.73.37,8.57-.12,4.7-.81,8.94-3,13-5.47,7.39-4.55,13.61-10.59,19.37-17.32a138.14,138.14,0,0,0,19.73-31.54,79.11,79.11,0,0,0,7.18-23.05,17.25,17.25,0,0,0-.28-7.12,8.17,8.17,0,0,1,5.25,7.69,35,35,0,0,1-1.27,9.17c-2.43,10-6.57,19.16-11.42,28a130.07,130.07,0,0,1-13.55,20.13A91.43,91.43,0,0,1,130,403.8a42.74,42.74,0,0,1-14.93,7.12,31,31,0,0,1-6.22.8c-4.63.16-8.07-2.44-11.37-5.43C97.33,406.16,97.32,405.87,97.25,405.65Z" transform="translate(-46.26 -257)"/><path class="cls-2" d="M197.86,390.58a6,6,0,0,1-2.68,1.45c-1.55.45-2.27-.08-2.65-1.76a6.08,6.08,0,0,1,0-2.29,52.52,52.52,0,0,1,2.85-10c5.08-14.1,11-27.8,17.41-41.25q7.33-15.42,14.72-30.8l2.15-.27c2.48-.31,3.73,1.36,2.75,3.8s-2.06,5-3.27,7.34c-5.15,10.16-10,20.49-14.74,30.87-4.94,10.79-9.67,21.69-13.69,32.93a77.46,77.46,0,0,0-2.57,7.9A6.52,6.52,0,0,0,197.86,390.58Z" transform="translate(-46.26 -257)"/><path class="cls-2" d="M302.75,516.61c1.42-.15,2.64.65,4,.9,4.33.81,8.64.37,12.93-.16a66.88,66.88,0,0,0,17.92-4.24c7.9-3.32,15.4-7.43,21.48-14a22.61,22.61,0,0,0,3.42-4.78c2.72-5.2,3.4-10.49.49-15.9,1.19-.05,1.7,1,2.43,1.73,4.72,4.54,5.14,11.21,2.62,16.83a28,28,0,0,1-7.11,9.26c-9.23,8.31-20,12.73-31.77,14.81A70.06,70.06,0,0,1,313,522.09a15.93,15.93,0,0,1-8.3-3.07A4.35,4.35,0,0,1,302.75,516.61Z" transform="translate(-46.26 -257)"/><path class="cls-2" d="M311.44,382.62a5,5,0,0,1-.78.37c-3,.87-4,0-4.07-3.25a20.06,20.06,0,0,1,1.15-6.58c1.93-6,4.45-11.78,6.88-17.57,3.25-7.78,6.87-15.37,10.39-23a3.31,3.31,0,0,1,2.79-2.15c4.07-.63,8.11-1.44,12.16-2.14a9.19,9.19,0,0,0,3.47-1.23,3.29,3.29,0,0,0,1.8-3.39c2,.72,3.15,2.58,4.4,4.24a1.79,1.79,0,0,1-.27,2.32,6.5,6.5,0,0,1-3.3,2.11,93,93,0,0,1-9.32,2c-1.63.29-3.25.66-4.9.86a2.37,2.37,0,0,0-2,1.53c-2.73,5.73-5.45,11.46-8,17.3-1.43,3.3-2.87,6.6-4.27,9.91-2.06,4.87-4,9.8-5.59,14.85A9.42,9.42,0,0,0,311.44,382.62Z" transform="translate(-46.26 -257)"/><path class="cls-2" d="M385.18,502.7a7.7,7.7,0,0,1-1,.45c-2.74.77-3.75-.09-3.84-3.11a23.13,23.13,0,0,1,1.81-8.78c3.67-9.95,7.88-19.64,12.29-29.23,1.47-3.19,3-6.35,4.45-9.56a3,3,0,0,1,2.45-1.93c4-.66,8-1.4,11.95-2.05a12.09,12.09,0,0,0,3.51-1.12,3.52,3.52,0,0,0,2.24-3.59c2.11.62,3.24,2.46,4.4,4.2a2,2,0,0,1-.45,2.53,6.85,6.85,0,0,1-4.22,2.15c-4.19.77-8.38,1.58-12.59,2.22a3.18,3.18,0,0,0-2.65,2c-4.52,9.63-8.93,19.32-13,29.19-1.53,3.7-2.93,7.43-4.24,11.21A14.89,14.89,0,0,0,385.18,502.7Z" transform="translate(-46.26 -257)"/><path class="cls-2" d="M327.53,390.68a17.79,17.79,0,0,0,13.36-3.55,54.4,54.4,0,0,0,11.77-11.56c4.51-6.2,8.63-12.62,11.43-19.94a28.35,28.35,0,0,0,2-12.92,6.07,6.07,0,0,1,4.76,6c.29,4.63-1.08,8.86-2.8,13a78.6,78.6,0,0,1-17.59,25.89c-4,3.9-8.51,6.91-14.06,7.58a9,9,0,0,1-8.24-3.09A1.92,1.92,0,0,1,327.53,390.68Z" transform="translate(-46.26 -257)"/><path class="cls-2" d="M401.23,510.45c6.9,1.29,12.29-2.19,17.45-6.4s8.73-9.63,12.38-15.13a58.22,58.22,0,0,0,8-16.92,20.5,20.5,0,0,0,.87-9.14c3.49,1,5.39,4,4.94,7.79a43.4,43.4,0,0,1-4.44,14.48,95.36,95.36,0,0,1-10.5,16.43,40.62,40.62,0,0,1-8.25,8.16c-2.22,1.56-4.27,3.39-6.83,4.4a15.19,15.19,0,0,1-8.08.9A6.86,6.86,0,0,1,401.23,510.45Z" transform="translate(-46.26 -257)"/><path class="cls-2" d="M211.22,399.27c6.89,1.24,12.24-2.28,17.42-6.44,4.05-3.26,7-7.56,10.06-11.77A67.81,67.81,0,0,0,248,363.85c1.4-4,2.36-8,1.85-12.25,3.64.84,4.77,3.76,4.8,6.74,0,4.45-1.38,8.52-3,12.52-2,5.1-5,9.58-8,14.08a56.54,56.54,0,0,1-8.51,10.48c-3.9,3.61-8,6.93-13.2,8.07-3.18.7-6.35.63-9.08-1.7C212.18,401.12,211.31,400.5,211.22,399.27Z" transform="translate(-46.26 -257)"/><path class="cls-2" d="M474.06,463.39c.26.79-.28,1.29-.58,1.87a21.46,21.46,0,0,0-1.72,4,8.62,8.62,0,0,0,.18,6.26,1.41,1.41,0,0,0-1.48.69c-6.13,7.53-12.26,15.05-17.43,23.41-1.63,2.65-3.29,5.28-4.94,7.92-2.28,3.62-3,3.85-6.84,2.78-2-.56-3.21-1.64-3.18-4,2.32.56,3.77-.6,5-2.63,3.92-6.41,7.76-12.9,12.36-18.79,5.28-6.77,10.31-13.79,16.37-19.82.67-.67,1.25-1.53,2.28-1.65Z" transform="translate(-46.26 -257)"/><path class="cls-2" d="M248.61,395.36c2.19.29,3.46-1,4.56-2.83,2.75-4.47,5.31-9.06,8.34-13.32,6.09-8.57,12.32-17,19.5-24.57a8.79,8.79,0,0,1,3.2-2.6c.65.7.22,1.27,0,1.77-1,2-1.95,4-3,5.93a104.6,104.6,0,0,0-5.91,12.91c-.68-.71-1,0-1.37.43-2.72,3.62-5.59,7.11-8,10.95s-5,8-7.45,12c-.41.64-.82,1.28-1.24,1.91a3.52,3.52,0,0,1-3.57,1.66,14.76,14.76,0,0,1-4.15-1.26C248.11,397.73,248.34,396.53,248.61,395.36Z" transform="translate(-46.26 -257)"/><path class="cls-2" d="M323.63,462a6.83,6.83,0,0,1-3.41-1.9,3.32,3.32,0,0,1-.63-4.38,18.07,18.07,0,0,1,3-3.93,87.77,87.77,0,0,1,13.16-10.93,65.18,65.18,0,0,1,20.38-9.36,9.21,9.21,0,0,1,4.15-.57c-.85,1.77-2,3.31-1.44,5.32-1.7.62-3.44,1.15-5.09,1.88a84.15,84.15,0,0,0-22.28,13.93,38.48,38.48,0,0,0-6.76,7.45A5.24,5.24,0,0,0,323.63,462Z" transform="translate(-46.26 -257)"/><path class="cls-1" d="M496.37,289a11.65,11.65,0,0,0-4.27-10.13,7.26,7.26,0,0,0-4-1.52c-1.78-.23-2.53-.86-2.57-1.95s.63-1.69,2.52-1.93a11.23,11.23,0,0,0,7.81-4.46,7.67,7.67,0,0,0,1.74-6c-.19-1.22-.27-2.46-.35-3.7s.44-2.14,1.36-2.27,1.73.49,2,1.69a51.68,51.68,0,0,0,1.25,5.88c1.62,4.87,4.56,8.36,9.08,10.26a7.54,7.54,0,0,1,1.18.57,1.75,1.75,0,0,1,.68,1.82,1.53,1.53,0,0,1-1.28,1.39,2.47,2.47,0,0,1-.86.05c-3.15-.41-5.36,1.38-7.26,3.74a19.85,19.85,0,0,0-3.35,7c-.22.74-.42,1.49-.68,2.21a1.44,1.44,0,0,1-1.71,1.06,1.61,1.61,0,0,1-1.35-1.59A18.12,18.12,0,0,1,496.37,289Zm3.16-20a16.06,16.06,0,0,1-6.06,6.62c2.6,1.71,3.91,4.3,5.43,6.93,1.78-2.8,3.49-5.26,6.39-6.83A23.29,23.29,0,0,1,499.53,269Z" transform="translate(-46.26 -257)"/><path class="cls-2" d="M286.85,384.84c-.12.09-.22.22-.35.25-4.12,1.18-5.83-.6-4.81-5.06a29.11,29.11,0,0,1,1.64-4.79c2.84-6.72,6.3-13.07,9.76-19.42a39,39,0,0,0,2.76-6.31,14.76,14.76,0,0,0,.95-5c4,1.2,5.29,3.37,4.32,7.5a20.74,20.74,0,0,1-.68,2.2A89.48,89.48,0,0,1,295,365.31c-2.66,5.05-5.27,10.14-7.45,15.45C287,382,286,383.28,286.85,384.84Z" transform="translate(-46.26 -257)"/><path class="cls-2" d="M486.56,503.61c2.47.46,4.88,1.22,7.44,1.22,7.45,0,13.87-3,19.82-7.51,2.18-1.67,4-3.75,6-5.61a6.85,6.85,0,0,0,2.37-5.48c.73,0,1.12-.62,1.67-1,1.09-.71,1.92-.42,2.44.81a9.75,9.75,0,0,1-1.68,9.93c-4.82,5.15-10.23,9.35-16.77,11.63a24.85,24.85,0,0,1-14.94.71C490.34,507.63,487.87,506.46,486.56,503.61Z" transform="translate(-46.26 -257)"/><path class="cls-2" d="M505.6,470.05c-2.11-.21-3.94.79-5.82,1.53a11.67,11.67,0,0,1-3.51,1.11c-1.27.09-1.62-.48-1-1.65a6.11,6.11,0,0,1,.89-1.3,45.26,45.26,0,0,1,10.46-8.91,6.94,6.94,0,0,1,1-.51c.56-.24,1-.19,1.09.58.11,1.07,0,2.32,1.09,2.83a4.46,4.46,0,0,0,3.39-.25c4.42-1.6,6.75-5,7.4-9.9,4.41.77,5.7,3.14,4,7.53-1.52,3.93-4.22,6.36-8.18,7.1-2.11.39-2.72,0-3.15-2.28-.07-.37-.08-.75-.15-1.35a8.4,8.4,0,0,0-3.51,1.7C508,467.28,506.41,468.2,505.6,470.05Z" transform="translate(-46.26 -257)"/><path class="cls-2" d="M161,402.89a18.93,18.93,0,0,0,11.7-4.86,58.14,58.14,0,0,0,11.6-13.09,4.78,4.78,0,0,1,1.4-1.74l.17.15a9.48,9.48,0,0,1-.5,2.7,28.88,28.88,0,0,0-.92,9.8,5,5,0,0,0-1.81,1.63,41.46,41.46,0,0,1-9.12,7.76c-2.68,1.68-5.66,2.84-8.9,1.77A4.73,4.73,0,0,1,161,402.89Z" transform="translate(-46.26 -257)"/><path class="cls-2" d="M494.92,496a17.81,17.81,0,0,1-2.3-.52c-2.8-1-3.61-4-1.74-6.41a25.4,25.4,0,0,1,4.38-4.11,52.1,52.1,0,0,1,9.29-6.28,6.86,6.86,0,0,0,4-4.6c2.19,0,3.34,1.52,4.27,3.38a2.35,2.35,0,0,1-.32,2.78,11.8,11.8,0,0,1-3.57,3,57.3,57.3,0,0,0-12.46,9.19C495.42,493.26,494.57,494.34,494.92,496Z" transform="translate(-46.26 -257)"/><path class="cls-1" d="M514.45,300.86c.22-2.72-1.82-6.32-5.14-6.64a3.1,3.1,0,0,1-.84-.24,1.78,1.78,0,0,1-1.19-2,1.6,1.6,0,0,1,1.43-1.5c.71-.14,1.43-.23,2.13-.44,3-.88,4.46-3.31,4.11-6.62a11.59,11.59,0,0,1-.09-1.86,1.56,1.56,0,0,1,1.49-1.67,1.48,1.48,0,0,1,1.54,1.35c.15.68.21,1.38.34,2.07.7,3.85,2.62,6.66,6,8.19l.59.29c.84.42,1.56,1,1.35,2.12s-1.1,1.16-1.91,1.1c-2.46-.19-3.93,1.26-5,3.39a35.63,35.63,0,0,0-1.42,3.64,4.83,4.83,0,0,1-.73,1.67,1.53,1.53,0,0,1-2.72-.73A12.4,12.4,0,0,1,514.45,300.86Zm4.77-7.84-2.37-3.24a22.61,22.61,0,0,1-2.82,3c.89,1.06,1.68,2,2.56,3A9.92,9.92,0,0,1,519.22,293Z" transform="translate(-46.26 -257)"/><path class="cls-2" d="M363.91,436a59.8,59.8,0,0,0,11.45-2.33,10.66,10.66,0,0,0,2.93-1.49A6,6,0,0,0,381,426.9a14.3,14.3,0,0,1,.17-1.84,2.8,2.8,0,0,1,.41.13c1.86.82,3.88,1.37,4.11,4.14.27,3.31-.53,5.95-3.36,7.66a18.67,18.67,0,0,1-5.73,2c-3.8.83-7.64,1.52-11.47,2.24-1.31.25-2-.83-1.72-2.59C363.51,437.76,364.15,437,363.91,436Z" transform="translate(-46.26 -257)"/><path class="cls-2" d="M475.79,477.88a6.4,6.4,0,0,0,3-2.85,131.74,131.74,0,0,0,6.29-12.44,16.36,16.36,0,0,0,1.6-6.69c2.2,0,3.5,1.36,4.23,3.46.18.5.34,1,.5,1.5a28.4,28.4,0,0,0-4.26,6.57,13.2,13.2,0,0,0-.55,7.64c-.7-.07-1,.42-1.27,1-.64,1.29-1.35,2.53-2,3.79a4,4,0,0,1-3.9,2.35c-1.72-.1-2.58-1.47-3.2-3C476.05,478.76,475.93,478.31,475.79,477.88Z" transform="translate(-46.26 -257)"/><path class="cls-2" d="M377,512.7a25.89,25.89,0,0,0,5.13.63,10.66,10.66,0,0,0,4.72-1.45,42.91,42.91,0,0,0,7.63-6.05c1.05-1,1.12-1,1.85.3s2.08,2.33,3.15,3.46a24.26,24.26,0,0,1-7.88,6.72c-4.24,2.22-8.36,1.82-12.34-.71A4,4,0,0,1,377,512.7Z" transform="translate(-46.26 -257)"/><path class="cls-2" d="M303.2,392.62c1.43.11,2.81.56,4.27.57a11.76,11.76,0,0,0,7-2.08,25.28,25.28,0,0,0,5.73-4.87,6,6,0,0,1,1-.92c.41-.34.89-.29,1.08.21.8,2.12,2.58,3.22,4.07,4.63-1.32.19-2.1,1.28-3,2.09a23.76,23.76,0,0,1-6.71,4.57,11.56,11.56,0,0,1-10.63-1A5.33,5.33,0,0,1,303.2,392.62Z" transform="translate(-46.26 -257)"/><path class="cls-2" d="M278.93,394.46c7.88,2,13.1-2.95,18.34-8.35a18.66,18.66,0,0,0,3.42,5.22c-3.21,3.88-6.82,6.93-11.82,7.81-3.72.65-6.61-.68-9.19-3.31A2.13,2.13,0,0,1,278.93,394.46Z" transform="translate(-46.26 -257)"/><path class="cls-2" d="M314.9,472.3c3.2,1.15,6.36,2.37,9.63,3.29,4.25,1.2,8.61,1.78,12.9,2.73a97.61,97.61,0,0,1,10.06,2.58,14.58,14.58,0,0,1,3.55,1.67c1,.66,2,1.32,1.92,2.82-4.35-1-8.65-2.3-13-3.1-3.55-.64-7.07-1.4-10.6-2.11a28.23,28.23,0,0,1-9.18-3.3C318.18,475.7,315.94,474.74,314.9,472.3Z" transform="translate(-46.26 -257)"/><path class="cls-2" d="M189.59,401.5c5.78,1.07,10.31-1.62,14.41-5.58.27-.26.53-.53.77-.81.61-.69,1.17-.87,1.67.13.74,1.47,2.23,2.14,3.15,3.41a2,2,0,0,1-.86,1.53c-3.11,2.87-6.25,5.72-10.58,6.11C194.62,406.61,190.72,405.56,189.59,401.5Z" transform="translate(-46.26 -257)"/><path class="cls-2" d="M339.65,319.06c-2.28.24-4.57.49-6.86.72-.12,0-.25-.12-.62-.31q2.13-4.5,4.24-9a1.8,1.8,0,0,0,1.56.61,9.5,9.5,0,0,1,1.92.22c1.5.4,2.28,1.66,1.42,3.09a25.54,25.54,0,0,0-1.13,2.49A3.66,3.66,0,0,0,339.65,319.06Z" transform="translate(-46.26 -257)"/><path class="cls-2" d="M413.46,439l-7.62.7c1.41-3.28,3-6.06,4.38-8.94.56.71,1.33.42,2,.52a10.24,10.24,0,0,1,1.92.3c1.21.42,1.56,1.22,1.08,2.52-.44,1.15-1,2.24-1.52,3.34A2.24,2.24,0,0,0,413.46,439Z" transform="translate(-46.26 -257)"/><path class="cls-2" d="M378.63,454.15l10.54-1.84-2.94,5.95a14.71,14.71,0,0,1-4.07.46,5.61,5.61,0,0,1-3-1.22C377.92,456.62,378.29,455.37,378.63,454.15Z" transform="translate(-46.26 -257)"/><path class="cls-2" d="M304.94,334.36l10.3-2c-1.08,2.47-1.81,4.52-3.21,6.19-1.07,0-2.13,0-3.2,0a8.55,8.55,0,0,1-1.89-.2C304.67,337.74,304.27,336.9,304.94,334.36Z" transform="translate(-46.26 -257)"/><path class="cls-2" d="M469.38,457a2.77,2.77,0,0,1-1,1.46,101.8,101.8,0,0,0-7.29,8.2.92.92,0,0,1-.68.23c1.43-3.16,3-6.23,4.13-9.52C466.15,457.33,467.74,456.71,469.38,457Z" transform="translate(-46.26 -257)"/><path class="cls-2" d="M279,346.18c-1.87,2.2-3.89,4.24-5.68,6.52-1,1.22-1.72,2.66-3.05,3.51l0,0a2.19,2.19,0,0,1,.3-1.33,78.73,78.73,0,0,0,4-8.94,7.69,7.69,0,0,0,2.7-.21C277.92,345.6,278.54,345.51,279,346.18Z" transform="translate(-46.26 -257)"/><path class="cls-2" d="M161.45,316.63a21.72,21.72,0,0,0-6.37.6c.16-2,1.35-3.29,1.73-4.87.81.27,1.64.49,2.42.83A3.18,3.18,0,0,1,161.45,316.63Z" transform="translate(-46.26 -257)"/><path class="cls-2" d="M335,380.18a4,4,0,0,1-2,.8c-2,.46-3-.27-3.28-2.46a15.22,15.22,0,0,1,.25-4.85,40.5,40.5,0,0,1,5.65-13.22c3.66-5.82,7.91-11,13.61-14.67.5-.32,1-.61,1.52-.89.86-.47,1.62-.72,2,.65a1.93,1.93,0,0,0,1.78,1.45c1.28.14,1.72.95,1.38,2.27a4.58,4.58,0,0,0-2.73,1.26,52.23,52.23,0,0,0-12,12.79,46.46,46.46,0,0,0-6.44,14.3C334.47,378.5,334.17,379.42,335,380.18Z" transform="translate(-46.26 -257)"/><path class="cls-3" d="M335,380.18c-.81-.76-.51-1.68-.29-2.57a46.46,46.46,0,0,1,6.44-14.3,52.23,52.23,0,0,1,12-12.79,4.58,4.58,0,0,1,2.73-1.26,15.82,15.82,0,0,1-1.49,5.29A74,74,0,0,1,342,374.49,26.9,26.9,0,0,1,335,380.18Z" transform="translate(-46.26 -257)"/><path class="cls-2" d="M270.27,356.21c0,.07-.08.19-.09.18s-.09-.11.12-.14Z" transform="translate(-46.26 -257)"/><path class="cls-2" d="M217.82,389.28c-2.76,1.56-4.25.7-4.42-2.58a18.33,18.33,0,0,1,1.15-7.5c3.49-9.13,8.46-17.07,16-22.9a30.38,30.38,0,0,1,4.08-2.62c.84-.44,1.49-.49,1.82.7a1.91,1.91,0,0,0,1.76,1.47c1.28.14,1.71.95,1.36,2.26a4.84,4.84,0,0,0-2.55,1.18,40.67,40.67,0,0,0-10.41,10.32C222.55,375.61,219,381.78,217.82,389.28Z" transform="translate(-46.26 -257)"/><path class="cls-2" d="M172.3,387a24.73,24.73,0,0,1-5.24,5.13c-.55.37-1.17.78-1.82.43s-.76-1.28-.69-2.05a18.06,18.06,0,0,1,1.15-4.7,52.73,52.73,0,0,1,9.35-16.07,41,41,0,0,1,13.8-11,10,10,0,0,1,3-1.1c.37.73-.12,1.11-.37,1.51-1.67,2.81-3.37,5.59-5.06,8.38-.16.26-.33.52-.65.56l-.49.72,0,0a1.47,1.47,0,0,0-1.13.58c-2.24,2.4-4.58,4.69-6.66,7.24a35.3,35.3,0,0,0-5.09,8.28C172.18,385.57,171.52,386.24,172.3,387Z" transform="translate(-46.26 -257)"/><path class="cls-3" d="M217.82,389.28c1.13-7.5,4.73-13.67,8.82-19.67a40.67,40.67,0,0,1,10.41-10.32,4.84,4.84,0,0,1,2.55-1.18,8.65,8.65,0,0,1-.7,3.14,67,67,0,0,1-13.13,21.89,29.57,29.57,0,0,1-6,5.31A3.18,3.18,0,0,1,217.82,389.28Z" transform="translate(-46.26 -257)"/><path class="cls-3" d="M172.3,387c-.78-.76-.12-1.43.15-2.07a35.3,35.3,0,0,1,5.09-8.28c2.08-2.55,4.42-4.84,6.66-7.24a1.47,1.47,0,0,1,1.13-.58,13.69,13.69,0,0,1-2.27,3.79C179.67,377.59,176,382.29,172.3,387Z" transform="translate(-46.26 -257)"/><path class="cls-2" d="M185.67,383.2a1.11,1.11,0,0,1,.5-.86l0,0a1.15,1.15,0,0,1-.31,1Z" transform="translate(-46.26 -257)"/><path class="cls-3" d="M185.3,368.85l.49-.72C185.75,368.46,185.71,368.8,185.3,368.85Z" transform="translate(-46.26 -257)"/><path class="cls-2" d="M186.17,382.34l.09-.16-.11.13Z" transform="translate(-46.26 -257)"/><path class="cls-2" d="M133.34,335.78c-.59-.55-1,.07-1.29.37-1.45,1.26-2.89,2.55-4.28,3.9a83.86,83.86,0,0,0-12.28,15.56,88.77,88.77,0,0,0-11.65,26.8,25.46,25.46,0,0,0,0,12.83c-2.44-.28-3.55-2.2-4.4-4.3-1.38-3.4-1.24-7-.66-10.53a65.62,65.62,0,0,1,5.8-17.73,96.21,96.21,0,0,1,18.72-27.19,70,70,0,0,1,17.87-13.39,27.12,27.12,0,0,1,7.92-2.72c-.76,1.08-1.7,1.28-2.4,1.79a57.07,57.07,0,0,0-9.87,9.05C135.41,331.9,134.58,334,133.34,335.78Z" transform="translate(-46.26 -257)"/><path class="cls-2" d="M155.76,336.3a8.62,8.62,0,0,0-3,2.23,41.43,41.43,0,0,0-7.15,8.27,8,8,0,0,0-1.61,4.91c.07,1.59-.69,2-1.86,1a9.24,9.24,0,0,1-3.27-3.87,2.42,2.42,0,0,0,.45-1.51,6.62,6.62,0,0,1,1.39-4.51,43.32,43.32,0,0,1,7.07-8.39,30.84,30.84,0,0,1,4.11-3.73,13.67,13.67,0,0,1,2.88-1.57c1.68-.59,2.41-.06,2.19,1.76A16.46,16.46,0,0,1,155.76,336.3Z" transform="translate(-46.26 -257)"/><path class="cls-2" d="M408.18,500.49a3.59,3.59,0,0,1-.57.32c-2.69,1-4.06,0-4.18-3a19.11,19.11,0,0,1,1.39-7.94c3.54-8.72,8.3-16.48,15.6-22.16,1-.81,2.17-1.53,3.28-2.23a6,6,0,0,1,2.15-1c.6.12.51.7.67,1.09a2.27,2.27,0,0,0,1.73,1.55c1.47.33,1.46.4,1.49,2.39a2.08,2.08,0,0,0-1.45.3,27.73,27.73,0,0,0-7,5.45A62,62,0,0,0,412,488.52C410,492.27,408.4,496.12,408.18,500.49Z" transform="translate(-46.26 -257)"/><path class="cls-3" d="M408.18,500.49c.22-4.37,1.84-8.22,3.77-12a62,62,0,0,1,9.39-13.25,27.73,27.73,0,0,1,7-5.45,2.08,2.08,0,0,1,1.45-.3A41.07,41.07,0,0,1,425.2,481a73.55,73.55,0,0,1-9.37,13.59A21.36,21.36,0,0,1,408.18,500.49Z" transform="translate(-46.26 -257)"/><path class="cls-4" d="M445.24,303.93c-2.5,2.89-5.11,5.51-8.87,6.25a3.6,3.6,0,0,0-1.22.45,1.74,1.74,0,0,0-.85,2,1.57,1.57,0,0,0,1.39,1.28,6.93,6.93,0,0,0,2.35-.25,18.26,18.26,0,0,0,8.11-5.17q2.46-2.46,4.76-5.1a34.76,34.76,0,0,1,7.59-6.53,25,25,0,0,1,15.62-3.75,23.75,23.75,0,0,1,9.21,2.41,31.09,31.09,0,0,1,17.16,23.32c1.34,7.55.5,15-1.17,22.37-1.61,7.09-4,13.91-5.95,20.91a131.63,131.63,0,0,0-4.64,25.53,25.06,25.06,0,0,1-2.15,9.43,11.71,11.71,0,0,1-5.48,5.73c-3.52,1.65-6.77.54-8.79-3a46,46,0,0,1-2.57-5.89,23,23,0,0,0-4.52-7.32c-3.25-3.46-9.57-4.81-13.73-2.82-3.57,1.7-4.92,5.05-5.61,8.83a29.66,29.66,0,0,0-.45,5.33,10.35,10.35,0,0,1-1.75,5.65,7.05,7.05,0,0,1-11.16.74A14.9,14.9,0,0,1,429,395c-.49-10.27-3.53-19.74-7.63-28.89-3.51-7.83-7.37-15.47-10.54-23.47-2.29-5.78-3.81-11.75-3.09-18.1.75-6.52,2.58-12.59,7.15-17.3a13.76,13.76,0,0,1,9.9-4.57c2,0,4.05-.06,6.07.1C435.64,303.15,440.35,303.89,445.24,303.93Zm26.83-1.47a1.8,1.8,0,0,0-.6,3.53q.63.19,1.26.33a16.26,16.26,0,0,1,12.21,10.33,6.53,6.53,0,0,0,.81,1.63,1.42,1.42,0,0,0,1.94.42,1.57,1.57,0,0,0,.81-1.74,7.64,7.64,0,0,0-.41-1.31,19.85,19.85,0,0,0-6.88-9.33A17.89,17.89,0,0,0,472.07,302.46Zm-32.61,33a1.8,1.8,0,0,0-1-1.73,1.34,1.34,0,0,0-1.62.14A8.27,8.27,0,0,0,435.8,335c-.4.48-.79.6-1.27.13a7.31,7.31,0,0,0-.83-.74c-1.05-.8-2.09-.8-2.7,0a2.25,2.25,0,0,0,.42,2.89c1.23,1.4,1.23,1.4.09,3-.08.12-.19.23-.26.36-.66,1.07-.61,2,.19,2.68a1.62,1.62,0,0,0,2.35-.16c.6-.56.89-1.57,1.68-1.72s1.23.94,1.93,1.3a1.18,1.18,0,0,1,.19.11,1.4,1.4,0,0,0,2-.29,1.75,1.75,0,0,0,.25-2.31,6.82,6.82,0,0,0-1.21-1.31.94.94,0,0,1-.11-1.54A2.8,2.8,0,0,0,439.46,335.44Z" transform="translate(-46.26 -257)"/><path class="cls-2" d="M474.08,463.41l.12-.17c.11.12.07.17-.14.15Z" transform="translate(-46.26 -257)"/><path class="cls-5" d="M499.53,269a23.29,23.29,0,0,0,5.76,6.72c-2.9,1.57-4.61,4-6.39,6.83-1.52-2.63-2.83-5.22-5.43-6.93A16.06,16.06,0,0,0,499.53,269Z" transform="translate(-46.26 -257)"/><path class="cls-5" d="M519.22,293a9.92,9.92,0,0,0-2.63,2.79c-.88-1-1.67-2-2.56-3a22.61,22.61,0,0,0,2.82-3Z" transform="translate(-46.26 -257)"/><path class="cls-6" d="M475.73,299.84a18,18,0,0,1,9.15,3.86,20,20,0,0,1,6.88,9.33,8.61,8.61,0,0,1,.4,1.31,1.58,1.58,0,0,1-.8,1.74,1.43,1.43,0,0,1-1.95-.43,6.53,6.53,0,0,1-.81-1.63,16.27,16.27,0,0,0-12.21-10.32q-.63-.13-1.26-.33a1.8,1.8,0,0,1,.6-3.53Z" transform="translate(-46.26 -257)"/><path class="cls-6" d="M412.69,315.78a21.07,21.07,0,0,1,7.15-6.4c3.11-1.65,6.23-2.6,9.36-2.09a4.28,4.28,0,0,1,1,.21,1.18,1.18,0,0,1,.66,1.44,1.73,1.73,0,0,1-1.27,1.53,4.29,4.29,0,0,1-1.43,0c-4.82-.38-9,1.89-12.75,6.34-.28.34-.56.66-.86,1-.68.73-1.36.88-2,.28S412.14,316.7,412.69,315.78Z" transform="translate(-46.26 -257)"/><path class="cls-6" d="M78.17,391.32A5.16,5.16,0,0,1,83,393.76a16.62,16.62,0,0,1,1.44,3.5c.76,1.95,1.33,4,2.15,5.93.32.75.52,1.58.81,2.37.76,2.06,1.4,4.17,2.13,6.24.66,1.85,1.38,3.66,2,5.51.16.46.3.47.72.39,1.09-.21,2.21-.13,3.32-.24,2.5-.27,5-.27,7.54-.48,3-.24,5.91-.47,8.88-.64,1.85-.11,3.7-.29,5.55-.42l9-.64c2.87-.2,5.75-.43,8.62-.62s6-.45,9-.64c1.83-.12,3.65-.28,5.47-.41,3.25-.23,6.5-.56,9.75-.81,1-.09,2-.09,3.05-.19,2.51-.25,5-.26,7.55-.47,3-.25,6-.44,9-.65l8.43-.62c3.06-.22,6.11-.46,9.16-.64,1.82-.12,3.64-.27,5.46-.41,3-.23,6-.47,9.06-.65,1.82-.1,3.64-.29,5.47-.41,3.25-.2,6.5-.55,9.75-.81,1-.08,2-.1,3-.18a53.55,53.55,0,0,1,5.64-.36,4.81,4.81,0,0,1,4.26,2.52c1.62,2.87.77,6.19-2,7.47a2,2,0,0,0-1,1.7c-.3,2.26-1.31,4.24-1.77,6.43-.54,2.55-1.5,4.93-2.13,7.44-1.05,4.16-2.32,8.22-3.42,12.35-.66,2.5-1.51,4.92-2.11,7.43-.51,2.13-1.29,4.15-1.77,6.27-.56,2.46-1.47,4.78-2,7.22a44.55,44.55,0,0,1-1.87,6.34c-.53,1.36.06,2.37.47,3.36a4.09,4.09,0,0,1-.26,3.65,5.91,5.91,0,0,1-5.07,3.38c-3.43.22-6.87.36-10.29.79-1,.12-2,.09-3,.19-2.54.24-5.09.26-7.63.47-3,.24-5.91.47-8.87.65-1.85.11-3.7.28-5.55.41-3,.22-6,.46-8.95.64-1.85.11-3.7.28-5.55.42-3,.21-6,.45-9,.63-1.85.11-3.69.3-5.55.42-3.05.19-6.09.47-9.15.64-1.81.1-3.63.29-5.45.41-3,.21-6,.46-9.05.64-1.82.11-3.63.34-5.46.41-1.64.06-3.27.28-4.91.39-.47,0-.42.36-.3.62.76,1.74,1.24,3.61,2,5.37.38.93.64,1.91,1,2.85.7,1.73,1.28,3.53,1.85,5.32.13.42.3.44.59.44a41,41,0,0,0,5.63-.41c1-.13,2.09-.12,3.13-.17,1.52-.07,3.05-.22,4.57-.3,3-.17,6.08-.46,9.13-.63,1.84-.11,3.69-.28,5.54-.41,3-.2,6.08-.47,9.13-.65,1.81-.1,3.63-.26,5.44-.4,3-.23,6-.46,9-.65,1.85-.11,3.7-.28,5.54-.41,3-.22,6-.45,8.94-.64,1.88-.11,3.75-.28,5.63-.42,2.95-.21,5.9-.45,8.85-.63,1.94-.12,3.88-.28,5.81-.42q4.44-.32,8.86-.66a30.51,30.51,0,0,1,3.57-.13c2.14.08,4.41,2.7,4.49,5a5.57,5.57,0,0,1-4.21,5.49c-2,.32-4.05.42-6.09.54-3.29.2-6.57.55-9.85.81-1,.08-2,.08-3.06.18-2.51.26-5,.27-7.55.48-3,.24-6,.47-9,.64-1.86.11-3.71.31-5.56.42-3.26.2-6.52.55-9.77.8-1,.09-2,.1-3.06.19-2.54.25-5.1.26-7.65.47-3,.25-5.92.44-8.88.65l-8.52.62-8.88.65c-2.87.2-5.74.46-8.62.61-2.21.13-4.41.48-6.62.56a5.14,5.14,0,0,1-3.46-1.13,7.08,7.08,0,0,1-2.23-3.58c-.87-2.5-1.74-5-2.63-7.51-.8-2.24-1.59-4.49-2.39-6.73-1.23-3.42-2.54-6.81-3.7-10.26-.41-1.21-.85-2.41-1.24-3.63-.85-2.62-1.88-5.16-2.83-7.73-.34-.95-.62-1.92-1-2.86-1-2.71-1.87-5.49-2.85-8.22-.82-2.29-1.59-4.62-2.45-6.88s-1.62-4.82-2.51-7.19c-1.18-3.1-2.25-6.26-3.36-9.4s-2.2-6.08-3.25-9.14c-.83-2.37-1.62-4.77-2.51-7.11-1-2.62-1.9-5.29-2.88-7.92S77.9,411.49,77,409c-.72-2.06-1.39-4.14-2.22-6.14-.35-.84-.93-.54-1.29-.44a19,19,0,0,1-3.75.31c-1.51.15-3.05.24-4.57.32-3,.15-6.09.48-9.13.62-2,.08-3.9.59-5.89.18a5.35,5.35,0,0,1-3.87-4.24,5.68,5.68,0,0,1,3.11-5.74c1.4-.74,2.82-.54,4.2-.71s3-.23,4.57-.32c3.07-.17,6.13-.44,9.2-.64,1.6-.1,3.21-.24,4.81-.37C74.18,391.62,76.18,391.48,78.17,391.32ZM95.4,428.19c1,2.83,2,5.49,2.91,8.15.43,1.21.8,2.44,1.23,3.64.95,2.64,2,5.25,2.87,7.9.21.62.41.76.91.55a1.45,1.45,0,0,1,.62-.1c1.86,0,3.71-.29,5.56-.4,3-.17,6-.41,9-.65,2.42-.19,4.85-.3,7.28-.42.45,0,.49-.18.51-.68a17.71,17.71,0,0,0-.45-2.19,38.56,38.56,0,0,0-.78-4.67c-.47-2.38-.89-4.78-1.35-7.16q-.54-2.73-1-5.46c-.06-.31-.17-.4-.42-.39a9.23,9.23,0,0,0-1.18,0c-2.3.4-4.63.36-6.94.58-1.75.18-3.51.33-5.26.42-3.1.17-6.19.48-9.29.63A22.92,22.92,0,0,1,95.4,428.19Zm128.08-9.25a34.2,34.2,0,0,1-4.54.39c-1.78.17-3.57.32-5.35.42-3.22.18-6.44.47-9.66.64-1.44.08-2.86.3-4.31.28-.63,0-1.61,0-1.46,1.3a21.26,21.26,0,0,1-.18,3.19c-.07,2.26-.32,4.52-.47,6.78-.2,3-.45,6-.66,9,0,.55.11.64.52.64,1.48,0,2.94-.18,4.41-.26,3.3-.17,6.59-.54,9.88-.79,2.4-.18,4.8-.29,7.19-.44.18,0,.42.13.48-.27.45-2.72,1.51-5.21,2.16-7.87.94-3.84,2.17-7.58,3.28-11.37C225.25,418.94,225.24,418.94,223.48,418.94ZM106.39,459c.22.71.36,1.28.56,1.82.71,2,1.46,3.91,2.16,5.88s1.24,3.76,1.92,5.61c.82,2.23,1.68,4.44,2.37,6.73.14.47.28.58.74.56,2-.07,4-.26,6-.43,2.54-.22,5.1-.19,7.63-.49a32.23,32.23,0,0,0,3.67-.3c.55-.13.71-.3.57-.93-.53-2.38-.9-4.81-1.39-7.21-.41-2-.78-4.1-1.1-6.15s-.78-4-1.1-6.08c-.08-.49-.28-.51-.61-.52-1.47,0-2.93.19-4.4.26-3.28.17-6.55.54-9.82.8C111.24,458.68,108.88,458.8,106.39,459ZM153.64,424c-1.26.43-2.89.18-4.49.37-1.84.22-3.69.34-5.53.44-3,.16-6,.39-9,.65-1.09.09-1.14,0-.88,1.28.34,1.63.65,3.27.93,4.9s.57,3.12.82,4.68c.44,2.71,1.07,5.38,1.45,8.11.19,1.35.39,1.53,1.52,1.38a4.37,4.37,0,0,1,.81,0,34.55,34.55,0,0,0,4.32-.26c3.75-.28,7.49-.61,11.23-.79,1.27-.06,1.31-.06,1.22-1.5,0-.21,0-.42,0-.63,0-2-.26-4-.33-6-.11-3.74-.37-7.48-.54-11.21C155.08,424,155.13,424,153.64,424Zm32-2.32c-1.14.4-2.71.19-4.25.37-1.92.23-3.86.32-5.8.44-2.92.19-5.83.38-8.75.64-.72.06-.95,0-.88,1.13.21,3.45.38,6.91.59,10.37.18,2.87.26,5.75.37,8.63,0,.43,0,.53.49.5,3.09-.2,6.17-.42,9.24-.69,2.52-.21,5-.27,7.55-.44,1.62-.11,1.66-.15,1.82-2,.26-3,.48-5.93.7-8.89.21-2.78.36-5.57.61-8.34C187.5,421.67,187.56,421.68,185.65,421.68Zm28.74,29.43c-.54-.21-1.19.21-1.88.22-1.83,0-3.65.24-5.47.39-3.4.29-6.81.47-10.23.64-.57,0-.82.11-.88.88-.2,2.57-.33,5.15-.56,7.72-.33,3.62-.44,7.26-.88,10.87-.06.53,0,1,0,1.52s.19.56.5.45a15,15,0,0,1,3.66-.33c3.49-.37,7-.5,10.51-.67a1.05,1.05,0,0,0,1.1-1c.41-1.87,1.1-3.62,1.52-5.48.59-2.6,1.54-5.07,2.14-7.68.48-2,1.33-3.92,1.68-6C215.87,451.09,216,451.11,214.39,451.11Zm-56.57,23.75c-.46-1.29-.16-3-.32-4.7-.2-2.23-.27-4.49-.38-6.73s-.19-4.5-.38-6.74c-.13-1.45-.31-1.63-1.57-1.32a2.07,2.07,0,0,1-.52.16c-3,.08-5.91.41-8.87.61-2,.14-4,.26-6,.43-.49,0-.48.23-.45.7.08,1.23.54,2.36.65,3.57a28.64,28.64,0,0,0,.65,3.74c.51,2.25.82,4.55,1.29,6.8a38.1,38.1,0,0,1,.8,4.7c.07.93.45,1.55,1.44,1.36a20.51,20.51,0,0,1,2.06-.2c3.47-.28,6.94-.47,10.42-.66C157.74,476.52,157.81,476.48,157.82,474.86ZM167.66,456h0c.2,2.94.48,5.86.56,8.8.05,1.81.12,3.63.26,5.42a37.17,37.17,0,0,0,.31,4.95c.06.25-.05.52.38.42a23.18,23.18,0,0,1,3.23-.24c3.47-.35,7-.52,10.42-.69.6,0,.8-.26.84-.88.14-1.76.3-3.52.38-5.28.14-3.2.53-6.37.65-9.57.06-1.72.28-3.45.44-5.17,0-.56-.18-.61-.51-.54-2.19.42-4.41.35-6.62.59-3.22.34-6.45.47-9.69.65-.46,0-.67.13-.61.7A5.89,5.89,0,0,1,167.66,456Z" transform="translate(-46.26 -257)"/><path class="cls-6" d="M203.13,512.41a13.37,13.37,0,0,1,8.06,2.11,14.26,14.26,0,0,1,5.32,6,13.32,13.32,0,0,1,1.53,6.8,15.61,15.61,0,0,1-4.32,10.34,14.83,14.83,0,0,1-6,3.8,13.7,13.7,0,0,1-8,.13,14.49,14.49,0,0,1-7.09-4.4,13,13,0,0,1-2.63-4.46,14.25,14.25,0,0,1-.73-6.71,15.39,15.39,0,0,1,6.23-10.82,14.47,14.47,0,0,1,6.3-2.73A6.66,6.66,0,0,1,203.13,512.41Z" transform="translate(-46.26 -257)"/><path class="cls-6" d="M155.81,531.89a15.22,15.22,0,0,1-7.14,11.54,14.8,14.8,0,0,1-6.88,2.47,16.81,16.81,0,0,1-12.51-3.62,13.8,13.8,0,0,1-4.58-6.71c-1.7-5.1.82-11.35,3.58-14a17,17,0,0,1,6.18-4,18.4,18.4,0,0,1,6.6-.94,15.1,15.1,0,0,1,7.35,2.09,14.11,14.11,0,0,1,5.22,5.06A14.85,14.85,0,0,1,155.81,531.89Z" transform="translate(-46.26 -257)"/><path class="cls-4" d="M140.43,530.64" transform="translate(-46.26 -257)"/><path class="cls-3" d="M140.43,538.14c9.65,0,9.66-15,0-15s-9.67,15,0,15Z" transform="translate(-46.26 -257)"/><path class="cls-3" d="M203.71,535.3c9.65,0,9.67-15,0-15s-9.67,15,0,15Z" transform="translate(-46.26 -257)"/><path class="cls-3" d="M140.28,538.14c9.65,0,9.67-15,0-15s-9.67,15,0,15Z" transform="translate(-46.26 -257)"/><path class="cls-4" d="M140.28,538.14c9.65,0,9.67-15,0-15s-9.67,15,0,15Z" transform="translate(-46.26 -257)"/><path class="cls-4" d="M203.64,535.26c9.65,0,9.67-15,0-15s-9.67,15,0,15Z" transform="translate(-46.26 -257)"/></svg>