<svg id="Capa_1" data-name="Capa 1" xmlns="http://www.w3.org/2000/svg" viewBox="0 0 474 404"><defs><style>.cls-1{fill:#201816;}.cls-2{fill:#fbcea8;}.cls-3{fill:#fdfdfe;}.cls-4{fill:#e52034;}.cls-5{fill:#e52529;}</style></defs><path class="cls-1" d="M309.11,538.13c3.9,1.55,8.08,2.5,12.05,3.94,15.41,5.62,28.34,14.33,39.79,25.22,14.88,14.15,23.39,31.11,27.6,50.07a95.39,95.39,0,0,1,1.85,17.75,4.46,4.46,0,0,1-4.62,4.88c-2.64.09-4.38-1.36-4.9-4.17a16.35,16.35,0,0,1-.19-3,77.86,77.86,0,0,0-1.85-15.18c-4.23-20.39-15.52-37-32.15-50.93a106,106,0,0,0-19.61-12.65c1.22,4.06,2.25,7.4,3.24,10.76a86.61,86.61,0,0,1,3.6,17.07c.21,2.43,1.4,3.54,3.91,4.46,8.7,3.18,13.59,10.67,12.74,18.82-.83,7.92-7.17,14.43-15.9,16.34-9.63,2.1-19.79-2.78-23.39-11.24-3.78-8.89,0-18.54,9-23,4.75-2.37,4.72-2.36,3.88-7.27A100.46,100.46,0,0,0,317,555.43,15.24,15.24,0,0,0,314,550.3c-1.07,1.21-2.13,2.32-3.08,3.5Q299,568.53,287.21,583.26q-.82,1-1.68,2c-3.29,3.87-6.54,3.93-9.73,0-6.94-8.52-13.8-17.11-20.69-25.66l-7.36-9.09c-1.74.28-1.67,1.51-2,2.34A67.37,67.37,0,0,0,242.49,567c-.19,1.49.24,2.09,2,2.62,12.6,3.8,20.29,12.95,20.81,25.45.44,10.46.3,21,.09,31.44-.14,6.59-5,11.77-11.66,13.27-3.36.75-6-.35-6.8-2.84s.5-4.2,3.81-5.38c4.32-1.54,5-2.36,5-6.57,0-9.49,0-19,0-28.48A18.34,18.34,0,0,0,250,582.57c-7.54-7.23-18.58-6.92-25.6.75a18.45,18.45,0,0,0-4.94,12.55c-.13,9.92-.05,19.84-.07,29.75,0,2.91,1.54,4.75,4.45,5.83,4.12,1.52,5.4,3.25,4.39,5.73s-3.92,3.39-7.88,2.15c-6.37-2-10.37-6.6-10.45-12.7-.13-10.76-.51-21.56.15-32.29.72-11.74,7.39-20.24,19.67-24.47,2.31-.8,3.28-1.73,3.34-3.81.11-3.81,1.32-7.49,2.07-11.25-2.06-.35-3.23.74-4.47,1.4A103.47,103.47,0,0,0,202,578.89a84.13,84.13,0,0,0-22,55.17,10.58,10.58,0,0,1-.09,1.69,4.7,4.7,0,0,1-4.9,4.25c-2.79,0-4.5-1.79-4.52-4.87a87.36,87.36,0,0,1,6.23-32.87A90.14,90.14,0,0,1,192,576.15a114.33,114.33,0,0,1,56.42-36.4c1.48-.42,3-.78,4.46-1.18.12,0,.19-.19.53-.53-.32-1.29-1.85-1.54-2.9-2.13-14.44-8.13-23.08-19.84-26.18-35a49,49,0,0,1-.62-9.74c0-21.4.49-42.81-.17-64.18-.49-15.63,12.53-27.76,29.8-28.1,18.79-.38,37.59-.13,56.39,0A31.62,31.62,0,0,1,323.09,402c1.39-1,1.15-2.38,1.4-3.56.78-3.75,1.36-7.55,2.27-11.27,1.81-7.44.07-14-5.35-19.8-5.24-5.6-9.05-11.93-10.36-19.2-2.74-15.21.44-29.09,12.63-40.4,13.58-12.61,32.85-10.45,45.11-1.13a7.22,7.22,0,0,1,1.34,1.17c1.33,1.62,2.73,1.49,4.35.35a38.77,38.77,0,0,1,12.42-5.63,42.66,42.66,0,0,1,22.48.17c1,.28,2.05.6,3.1.9,1-1.28.22-2.51.1-3.7-1-10.1,1-19.49,8.18-27.53,8-9.05,21.88-12.71,34.55-9.3a21.24,21.24,0,0,1,2.64.81,2.5,2.5,0,0,0,3.47-1.1,42.59,42.59,0,0,1,3.28-4.63c14.23-16.53,41.49-20.2,60.8-2.14,12.93,12.09,16.19,26.42,10.55,42.3-2.86,8.06-2.51,15.56,2.05,22.89,1.53,2.46,3.14,4.88,4.73,7.31,6.75,10.32,10.32,21.45,10.17,33.5-.08,6.21-3.9,10.84-10,12.31a14,14,0,0,1-11-2,44,44,0,0,1-5.7-4.35c-7.16-6.28-14.26-12.63-21.38-19a26.21,26.21,0,0,0-2-1.77c-2.14-1.55-3.38-1.14-3.72,1.26a37.44,37.44,0,0,0-.19,3.82c-.37,9.77-.79,19.54-1.1,29.31-.18,5.84-3,10-8.95,12.25-5.18,1.95-11.14.41-15.54-4a61.34,61.34,0,0,1-16.47-28.13c-1-3.72-1.85-7.45-2.88-11.15-2.11-7.58-7.53-12.3-15.71-15.11-.23,4.13,0,7.91-.71,11.68a37.09,37.09,0,0,1-11.14,20.63c-7.37,6.87-10.32,14.78-9,24.34a98.12,98.12,0,0,1,1.25,16.52,59,59,0,0,1-5.95,23.85,13.22,13.22,0,0,1-10.72,7.86c-6.71.9-12-2-14.64-8-4.2-9.58-8.32-19.2-12.58-28.76-.71-1.61-.69-4.21-3.1-4.31s-2.58,2.5-3.46,4q-7.86,13.71-15.56,27.5c-2.55,4.61-6.61,7-12.15,7.36-3.51.25-3.54.25-3.54,3.56,0,11.62,0,23.24,0,34.86,0,6.51.13,13-.18,19.55-.81,16.73-9.3,29.63-24.17,39.2-1.13.72-2.25,1.46-3.37,2.21C309.24,537.58,309.24,537.76,309.11,538.13ZM339,427.18c2.32-.05,2.45-1.78,3.1-2.94,5.36-9.58,10.6-19.21,16-28.77,2.82-5,7.56-7.38,13.64-7.29,6.26.09,10.4,3.19,12.93,8.26.51,1,.93,2.09,1.39,3.14q6.1,14,12.22,28c.33.77.53,1.71,1.79,1.59,1-.1,1-1,1.3-1.57.87-2,1.7-3.94,2.44-5.95,3.33-9.12,2.86-18.46,1.43-27.75-1.94-12.62,1.64-23.5,11.27-32.75,7.67-7.38,10.65-16.17,8.79-26.16-4.18-22.52-29-27.88-44-17.64-6.42,4.37-12.88,3.91-19.13-.84-1-.72-1.81-1.56-2.79-2.25a21.89,21.89,0,0,0-24.67-.51,24.26,24.26,0,0,0-9.07,10.58c-5.81,12.95-4.71,25.21,5.3,36.22,6.83,7.51,9.65,16,8.45,25.64a52.12,52.12,0,0,1-1.45,7.51C334.82,404.91,334.48,416.05,339,427.18Zm186.9-139.49c-.38-9.72-4.4-17.89-12.9-23.9-6.39-4.51-13.63-6.61-21.81-5.12-8.6,1.57-14.9,5.89-19.22,12.83-3.39,5.44-8.35,7.68-14.69,6.82a33.09,33.09,0,0,1-4.45-1.16c-12.59-3.63-24.07,2.1-27.41,13.69-4.3,14.93,4.93,32.35,20.4,38.49,10,4,16.51,10.82,19.62,20.3,1.29,3.92,2.4,7.91,3.3,11.92,1.79,8,5.77,14.9,11.28,21.17,1.2,1.37,2.27,3.84,4.32,3.28,2.23-.61,1.31-3.18,1.37-4.92.39-9.91.63-19.83,1-29.74.39-9.5,9.6-15.55,18.95-12.52a17.53,17.53,0,0,1,6.1,3.81q12,10.62,24.16,21.2a21.4,21.4,0,0,0,2.79,2.22c.91.57,1.85.41,2-.77a18.4,18.4,0,0,0,0-3c-.39-10.52-4.4-20-10.87-28.48-8.82-11.55-11.1-23.71-5.81-37A24.89,24.89,0,0,0,525.92,287.69ZM233.22,477.32h0c0,4.7-.06,9.39,0,14.09a39.78,39.78,0,0,0,8.88,24.85c9,11,21.29,16.66,36.49,17.73,20.3,1.43,39.12-9.75,46.14-27.2,3.56-8.81,2.42-17.87,2.7-26.87,0-1.31-.68-1.62-2-1.75-4.62-.43-9.25-.85-13.84-1.5-17.41-2.48-33.61-7.62-47.2-18.29a6.3,6.3,0,0,0-5.14-1.45,71.26,71.26,0,0,1-13.91.74c-9.58-.7-12.31-2.07-12.22,1.82C233.31,465.43,233.22,471.37,233.22,477.32Zm47.17-27.69h41.45c1.08,0,2.18-.07,3.26,0,1.83.12,2.42-.6,2.37-2.24-.1-3.54,0-7.08,0-10.62,0-2.67.55-5.52-.73-7.88-2.06-3.78-2.62-8-2.75-12.24a5.57,5.57,0,0,0-2.3-4.28c-4-3.44-8.89-4.3-14.17-4.28-15.21,0-30.43,0-45.64,0-3.86,0-7.73,0-11.56.3-9.67.87-16.91,8.56-17,17.43-.1,6.78,0,13.57,0,20.35,0,3.38,0,3.42,3.85,3.42Q258.72,449.65,280.39,449.63Zm.21,127.09L305,546.31c-16.66-3.35-32.4-3.56-48.6.42Zm-1.13-118.21c14.68,7.91,30.67,11.26,47.54,12a4.21,4.21,0,0,0,.38-1.17c0-2.83.07-5.65,0-8.48s-.06-2.91-3.38-2.92q-21.39,0-42.77,0C280.72,457.9,280.07,457.73,279.47,458.51Zm61.68,145c-.08-5.46-5.17-10.11-11-10-6,.09-10.88,4.56-10.95,10.06-.07,5.31,5.11,10,11,10S341.23,608.81,341.15,603.47Z" transform="translate(-79 -244)"/><path class="cls-1" d="M178.55,553.8A68.52,68.52,0,0,1,198.22,563a15.34,15.34,0,0,1,2.95,2.37,4.73,4.73,0,0,1,.43,5.87,4.46,4.46,0,0,1-5.68,1.83,34.67,34.67,0,0,1-3.64-2.18c-30.76-19.47-70.19-11-91,19.94-8,12-12,25-12.57,39.45,0,.66,0,1.33-.08,2-.42,3.14-2.23,4.83-5,4.71s-4.45-2-4.57-5.15a72.42,72.42,0,0,1,1.34-15.2c2.23-13,7-24.9,15-35.11,9.44-12.13,21.08-21.21,35.21-26.47l3.53-1.28c-.12-1.62-1.54-1.91-2.42-2.69-9.25-8.24-15-18.52-15.17-31.47-.29-19.06-.09-38.14-.19-57.21-.06-11.44,7.86-22.11,20.83-22.47s26.12-.48,39.15,0c13.47.53,21.31,9.69,21.36,23.94q.09,26.4,0,52.79c-.07,12.76-4.18,23.79-13.29,32.43C182.75,550.66,180.92,551.9,178.55,553.8ZM156.85,482c-9.46,0-18.92,0-28.38,0-2,0-2.69.52-2.66,2.39.12,8.05-.26,16.11.19,24.15.83,14.84,15.31,29.4,37.1,25.87,13.72-2.23,25-13.41,25-27.32,0-7.35,0-14.69,0-22,0-2.95-.07-3-3.33-3C175.46,482,166.15,482,156.85,482Zm-.35-8.57c9.47,0,18.94-.05,28.41,0,2.29,0,3.38-.42,3.25-2.79-.2-3.8.1-7.63-.1-11.44-.34-6.51-4.28-10.37-11.38-10.49q-20-.33-40,0c-6.43.09-10.54,4.17-10.75,10.07-.14,4,.1,7.92-.09,11.87-.12,2.34.92,2.8,3.23,2.78C138.19,473.37,147.35,473.43,156.5,473.43Z" transform="translate(-79 -244)"/><path class="cls-2" d="M233.24,477.53c0-5.94.09-11.87-.05-17.81-.09-3.87,2.64-2.52,12.22-1.81a72.15,72.15,0,0,0,13.92-.74,6.33,6.33,0,0,1,5.14,1.44c13.6,10.66,29.8,15.8,47.21,18.27,4.59.65,9.23,1.07,13.85,1.51,1.29.12,2,.43,2,1.74-.28,9,.86,18-2.69,26.84-7,17.42-25.86,28.58-46.16,27.16-15.21-1.07-27.51-6.75-36.51-17.71a39.7,39.7,0,0,1-8.88-24.82c-.06-4.69,0-9.38,0-14.07Z" transform="translate(-79 -244)"/><path class="cls-3" d="M280.42,449.88q-21.66,0-43.32,0c-3.81,0-3.84,0-3.85-3.42,0-6.77-.09-13.55,0-20.32.13-8.86,7.37-16.54,17.05-17.41,3.83-.34,7.7-.29,11.56-.3,15.22,0,30.44,0,45.65,0,5.28,0,10.16.84,14.17,4.28A5.53,5.53,0,0,1,324,417c.13,4.22.69,8.45,2.75,12.22,1.28,2.36.72,5.21.74,7.88,0,3.53-.07,7.07,0,10.6.05,1.64-.54,2.36-2.37,2.24-1.08-.08-2.18,0-3.26,0Zm-3.81-16.66c0,1.69-.1,3.38,0,5.07.24,3.54,1.63,4.86,4.93,4.89s4.68-1.41,4.9-4.89c.11-1.66-.8-3.73.43-4.89,1.4-1.33,3.8-.43,5.76-.56,3.36-.22,5.27-1.69,5.3-4.18s-1.9-4.07-5.19-4.3c-2-.14-4.44.75-5.79-.49s-.36-3.48-.52-5.28c-.27-3.1-1.76-4.53-4.81-4.56s-4.69,1.33-5,4.44c-.17,1.89,0,3.81,0,5.89-2.5,0-4.35-.07-6.19,0-3.24.14-5.32,1.83-5.33,4.21s2.05,4.05,5.29,4.24C272.4,433,274.43,432.55,276.61,433.22Z" transform="translate(-79 -244)"/><path class="cls-4" d="M280.64,576.8l-24.23-29.95c16.21-4,31.95-3.77,48.62-.42Z" transform="translate(-79 -244)"/><path class="cls-3" d="M279.51,458.75c.6-.78,1.24-.61,1.81-.61q21.39,0,42.78,0c3.32,0,3.35.06,3.38,2.91s0,5.65,0,8.47a4.39,4.39,0,0,1-.38,1.18C310.19,470,294.19,466.64,279.51,458.75Z" transform="translate(-79 -244)"/><path class="cls-2" d="M156.85,483c9.3,0,18.61,0,27.92,0,3.26,0,3.32.07,3.33,3.65,0,8.88,0,17.76,0,26.64,0,16.84-11.27,30.35-25,33-21.79,4.27-36.27-13.33-37.1-31.29-.45-9.71-.07-19.46-.19-29.2,0-2.26.66-2.91,2.66-2.89C137.93,483.06,147.39,483,156.85,483Z" transform="translate(-79 -244)"/><path class="cls-3" d="M156.5,473.43c-9.15,0-18.31-.06-27.47,0-2.31,0-3.35-.44-3.23-2.78.19-3.95,0-7.91.09-11.87.21-5.9,4.32-10,10.75-10.07q20-.3,40,0c7.1.12,11,4,11.38,10.49.2,3.81-.1,7.64.1,11.44.13,2.37-1,2.81-3.25,2.79C175.44,473.38,166,473.43,156.5,473.43Z" transform="translate(-79 -244)"/><path class="cls-5" d="M276.61,433.22c-2.18-.67-4.21-.27-6.2-.39-3.24-.19-5.3-1.84-5.29-4.24s2.09-4.07,5.33-4.21c1.84-.09,3.69,0,6.19,0,0-2.08-.14-4,0-5.89.28-3.11,1.89-4.46,5-4.44s4.54,1.46,4.81,4.56c.16,1.8-.83,4,.52,5.28s3.82.35,5.79.49c3.29.23,5.22,1.82,5.19,4.3s-1.94,4-5.3,4.18c-2,.13-4.36-.77-5.76.56-1.23,1.16-.32,3.23-.43,4.89-.22,3.48-1.63,4.91-4.9,4.89s-4.69-1.35-4.93-4.89C276.51,436.6,276.61,434.91,276.61,433.22Z" transform="translate(-79 -244)"/><path class="cls-5" d="M156.24,465.45c-1.43-.55-2.76-.22-4.06-.32a3.44,3.44,0,1,1,0-6.87c1.21-.07,2.42,0,4.06,0,0-1.69-.09-3.25,0-4.79.19-2.52,1.25-3.61,3.27-3.6s3,1.18,3.16,3.7c.1,1.46-.55,3.28.34,4.29s2.51.28,3.8.4c2.16.18,3.43,1.47,3.4,3.49s-1.27,3.22-3.47,3.4c-1.29.1-2.87-.63-3.79.45s-.21,2.62-.28,4c-.14,2.82-1.07,4-3.21,4s-3.08-1.1-3.24-4C156.18,468.19,156.24,466.82,156.24,465.45Z" transform="translate(-79 -244)"/><path class="cls-1" d="M99,607" transform="translate(-79 -244)"/><line class="cls-1" x1="7" y1="398" x2="96.06" y2="398"/><path class="cls-1" d="M86,648h89.06c7.72,0,7.73-12,0-12H86c-7.72,0-7.73,12,0,12Z" transform="translate(-79 -244)"/></svg>